<mxfile host="Electron" agent="Mozilla/5.0 (Macintosh; Intel Mac OS X 10_15_7) AppleWebKit/537.36 (KHTML, like Gecko) draw.io/24.7.17 Chrome/128.0.6613.36 Electron/32.0.1 Safari/537.36" version="24.7.17">
  <diagram name="第 1 页" id="uslpMt5VAwmbwju6c7YK">
    <mxGraphModel dx="2237" dy="1767" grid="1" gridSize="10" guides="1" tooltips="1" connect="1" arrows="1" fold="1" page="1" pageScale="1" pageWidth="1169" pageHeight="827" math="0" shadow="0">
      <root>
        <mxCell id="0" />
        <mxCell id="1" parent="0" />
        <mxCell id="6Hko_wkwTn4YoxljfCgy-14" value="" style="rounded=1;whiteSpace=wrap;html=1;fillColor=#dae8fc;strokeColor=#6c8ebf;" vertex="1" parent="1">
          <mxGeometry x="-448.5" y="-650" width="308.5" height="345" as="geometry" />
        </mxCell>
        <mxCell id="6Hko_wkwTn4YoxljfCgy-13" value="" style="rounded=1;whiteSpace=wrap;html=1;fillColor=#d5e8d4;strokeColor=#82b366;movable=1;resizable=1;rotatable=1;deletable=1;editable=1;locked=0;connectable=1;" vertex="1" parent="1">
          <mxGeometry x="-910" y="-576.25" width="250" height="200" as="geometry" />
        </mxCell>
        <mxCell id="6Hko_wkwTn4YoxljfCgy-2" value="" style="shape=note;size=15;whiteSpace=wrap;html=1;strokeWidth=2;movable=1;resizable=1;rotatable=1;deletable=1;editable=1;locked=0;connectable=1;" vertex="1" parent="1">
          <mxGeometry x="-900" y="-540.25" width="50.75" height="66.5" as="geometry" />
        </mxCell>
        <mxCell id="6Hko_wkwTn4YoxljfCgy-3" value="" style="shape=note;size=15;whiteSpace=wrap;html=1;strokeWidth=2;movable=1;resizable=1;rotatable=1;deletable=1;editable=1;locked=0;connectable=1;" vertex="1" parent="1">
          <mxGeometry x="-879.25" y="-515.75" width="50.75" height="66.5" as="geometry" />
        </mxCell>
        <mxCell id="6Hko_wkwTn4YoxljfCgy-4" value="Source&lt;div&gt;Files&lt;/div&gt;" style="shape=note;size=15;whiteSpace=wrap;html=1;strokeWidth=2;fontStyle=1;movable=1;resizable=1;rotatable=1;deletable=1;editable=1;locked=0;connectable=1;" vertex="1" parent="1">
          <mxGeometry x="-859.25" y="-492.75" width="50.75" height="66.5" as="geometry" />
        </mxCell>
        <mxCell id="6Hko_wkwTn4YoxljfCgy-6" value="Database" style="shape=datastore;whiteSpace=wrap;html=1;strokeWidth=2;fontSize=16;fontStyle=1" vertex="1" parent="1">
          <mxGeometry x="-273.38" y="-526" width="90" height="90" as="geometry" />
        </mxCell>
        <mxCell id="6Hko_wkwTn4YoxljfCgy-7" value="" style="sketch=0;outlineConnect=0;fontColor=#232F3E;gradientColor=none;fillColor=#232F3D;strokeColor=none;dashed=0;verticalLabelPosition=bottom;verticalAlign=top;align=center;html=1;fontSize=12;fontStyle=0;aspect=fixed;pointerEvents=1;shape=mxgraph.aws4.traditional_server;" vertex="1" parent="1">
          <mxGeometry x="-430" y="-508" width="40.38" height="70" as="geometry" />
        </mxCell>
        <mxCell id="6Hko_wkwTn4YoxljfCgy-20" style="edgeStyle=orthogonalEdgeStyle;rounded=0;orthogonalLoop=1;jettySize=auto;html=1;strokeWidth=3;" edge="1" parent="1">
          <mxGeometry relative="1" as="geometry">
            <mxPoint x="-690" y="-484" as="sourcePoint" />
            <mxPoint x="-429.75" y="-482.1533333333333" as="targetPoint" />
            <Array as="points">
              <mxPoint x="-690" y="-483" />
              <mxPoint x="-559" y="-483" />
            </Array>
          </mxGeometry>
        </mxCell>
        <mxCell id="6Hko_wkwTn4YoxljfCgy-8" value="" style="shape=mxgraph.signs.tech.computer;html=1;pointerEvents=1;fillColor=#000000;strokeColor=none;verticalLabelPosition=bottom;verticalAlign=top;align=center;movable=1;resizable=1;rotatable=1;deletable=1;editable=1;locked=0;connectable=1;" vertex="1" parent="1">
          <mxGeometry x="-740" y="-501.25" width="50" height="50" as="geometry" />
        </mxCell>
        <mxCell id="6Hko_wkwTn4YoxljfCgy-11" value="" style="shape=note;size=15;whiteSpace=wrap;html=1;strokeWidth=2;" vertex="1" parent="1">
          <mxGeometry x="-233" y="-591.5" width="50.75" height="55.5" as="geometry" />
        </mxCell>
        <mxCell id="6Hko_wkwTn4YoxljfCgy-10" value="" style="shape=note;size=15;whiteSpace=wrap;html=1;strokeWidth=2;" vertex="1" parent="1">
          <mxGeometry x="-253" y="-614.5" width="50.75" height="64.5" as="geometry" />
        </mxCell>
        <mxCell id="6Hko_wkwTn4YoxljfCgy-9" value="" style="shape=note;size=15;whiteSpace=wrap;html=1;strokeWidth=2;" vertex="1" parent="1">
          <mxGeometry x="-273.75" y="-639" width="50.75" height="69" as="geometry" />
        </mxCell>
        <mxCell id="6Hko_wkwTn4YoxljfCgy-15" value="&lt;span style=&quot;font-size: 15px;&quot;&gt;&lt;b&gt;Server&lt;/b&gt;&lt;/span&gt;" style="text;html=1;align=center;verticalAlign=middle;resizable=0;points=[];autosize=1;strokeColor=none;fillColor=none;" vertex="1" parent="1">
          <mxGeometry x="-444.80999999999995" y="-438" width="70" height="30" as="geometry" />
        </mxCell>
        <mxCell id="6Hko_wkwTn4YoxljfCgy-18" value="&lt;span style=&quot;font-size: 15px;&quot;&gt;&lt;b&gt;Local&lt;/b&gt;&lt;/span&gt;&lt;div&gt;&lt;span style=&quot;font-size: 15px;&quot;&gt;&lt;b&gt;PC&lt;/b&gt;&lt;/span&gt;&lt;/div&gt;" style="text;html=1;align=center;verticalAlign=middle;resizable=1;points=[];autosize=1;strokeColor=none;fillColor=none;movable=1;rotatable=1;deletable=1;editable=1;locked=0;connectable=1;" vertex="1" parent="1">
          <mxGeometry x="-745" y="-456.5" width="60" height="50" as="geometry" />
        </mxCell>
        <mxCell id="6Hko_wkwTn4YoxljfCgy-12" value="&lt;font style=&quot;font-size: 18px;&quot;&gt;Internet&lt;/font&gt;" style="text;html=1;align=center;verticalAlign=middle;resizable=0;points=[];autosize=1;strokeColor=none;fillColor=none;fontStyle=1" vertex="1" parent="1">
          <mxGeometry x="-590" y="-455" width="80" height="40" as="geometry" />
        </mxCell>
        <mxCell id="6Hko_wkwTn4YoxljfCgy-21" style="edgeStyle=orthogonalEdgeStyle;rounded=0;orthogonalLoop=1;jettySize=auto;html=1;exitX=0;exitY=0;exitDx=50.75;exitDy=40.75;exitPerimeter=0;entryX=0;entryY=0.5;entryDx=0;entryDy=0;entryPerimeter=0;strokeWidth=2;movable=1;resizable=1;rotatable=1;deletable=1;editable=1;locked=0;connectable=1;" edge="1" parent="1" source="6Hko_wkwTn4YoxljfCgy-4" target="6Hko_wkwTn4YoxljfCgy-8">
          <mxGeometry relative="1" as="geometry">
            <Array as="points">
              <mxPoint x="-808" y="-476.25" />
            </Array>
          </mxGeometry>
        </mxCell>
        <mxCell id="6Hko_wkwTn4YoxljfCgy-22" value="" style="endArrow=classic;html=1;rounded=0;strokeWidth=3;entryX=0;entryY=0.5;entryDx=0;entryDy=0;startArrow=none;startFill=0;" edge="1" parent="1" target="6Hko_wkwTn4YoxljfCgy-6">
          <mxGeometry width="50" height="50" relative="1" as="geometry">
            <mxPoint x="-389" y="-480.5" as="sourcePoint" />
            <mxPoint x="-339" y="-530.5" as="targetPoint" />
          </mxGeometry>
        </mxCell>
        <mxCell id="6Hko_wkwTn4YoxljfCgy-25" value="" style="endArrow=classic;html=1;rounded=0;strokeWidth=3;entryX=0;entryY=0.5;entryDx=0;entryDy=0;entryPerimeter=0;" edge="1" parent="1" target="6Hko_wkwTn4YoxljfCgy-9">
          <mxGeometry width="50" height="50" relative="1" as="geometry">
            <mxPoint x="-389.6199999999999" y="-500.6229972071144" as="sourcePoint" />
            <mxPoint x="-339" y="-531.5" as="targetPoint" />
          </mxGeometry>
        </mxCell>
        <mxCell id="6Hko_wkwTn4YoxljfCgy-26" value="" style="shape=note;size=15;whiteSpace=wrap;html=1;strokeWidth=2;" vertex="1" parent="1">
          <mxGeometry x="-232.63" y="-372" width="50.75" height="55.75" as="geometry" />
        </mxCell>
        <mxCell id="6Hko_wkwTn4YoxljfCgy-27" value="" style="shape=note;size=15;whiteSpace=wrap;html=1;strokeWidth=2;" vertex="1" parent="1">
          <mxGeometry x="-252.63" y="-395" width="50.75" height="65" as="geometry" />
        </mxCell>
        <mxCell id="6Hko_wkwTn4YoxljfCgy-28" value="" style="shape=note;size=15;whiteSpace=wrap;html=1;strokeWidth=2;" vertex="1" parent="1">
          <mxGeometry x="-273.38" y="-419.5" width="50.75" height="69.5" as="geometry" />
        </mxCell>
        <mxCell id="6Hko_wkwTn4YoxljfCgy-32" value="&lt;font style=&quot;font-size: 10px;&quot;&gt;Unique&lt;/font&gt;&lt;div style=&quot;font-size: 10px;&quot;&gt;&lt;font style=&quot;font-size: 10px;&quot;&gt;Block&lt;/font&gt;&lt;/div&gt;&lt;div style=&quot;font-size: 10px;&quot;&gt;&lt;font style=&quot;font-size: 10px;&quot;&gt;Files&lt;/font&gt;&lt;/div&gt;&lt;div style=&quot;font-size: 10px;&quot;&gt;&lt;font style=&quot;font-size: 10px;&quot;&gt;(.ubk)&lt;/font&gt;&lt;/div&gt;" style="text;html=1;align=center;verticalAlign=middle;resizable=0;points=[];autosize=1;strokeColor=none;fillColor=none;fontSize=10;fontStyle=1" vertex="1" parent="1">
          <mxGeometry x="-278.38" y="-630" width="60" height="60" as="geometry" />
        </mxCell>
        <mxCell id="6Hko_wkwTn4YoxljfCgy-33" value="&lt;font style=&quot;font-size: 12px;&quot;&gt;File&lt;/font&gt;&lt;div style=&quot;&quot;&gt;&lt;font style=&quot;font-size: 12px;&quot;&gt;Blocks&lt;/font&gt;&lt;/div&gt;" style="text;html=1;align=center;verticalAlign=middle;resizable=1;points=[];autosize=1;strokeColor=none;fillColor=none;strokeWidth=2;movable=1;rotatable=1;deletable=1;editable=1;locked=0;connectable=1;" vertex="1" parent="1">
          <mxGeometry x="-805" y="-478.25" width="60" height="40" as="geometry" />
        </mxCell>
        <mxCell id="6Hko_wkwTn4YoxljfCgy-34" value="&lt;div style=&quot;font-size: 10px;&quot;&gt;Block&lt;/div&gt;&lt;div style=&quot;font-size: 10px;&quot;&gt;Hash&lt;/div&gt;&lt;div style=&quot;font-size: 10px;&quot;&gt;Files&lt;/div&gt;&lt;div style=&quot;font-size: 10px;&quot;&gt;(.bkh)&lt;/div&gt;" style="text;html=1;align=center;verticalAlign=middle;resizable=0;points=[];autosize=1;strokeColor=none;fillColor=none;fontSize=10;fontStyle=1" vertex="1" parent="1">
          <mxGeometry x="-273" y="-410" width="50" height="60" as="geometry" />
        </mxCell>
        <mxCell id="6Hko_wkwTn4YoxljfCgy-49" value="" style="group;movable=1;resizable=1;rotatable=1;deletable=1;editable=1;locked=0;connectable=1;" vertex="1" connectable="0" parent="1">
          <mxGeometry x="-800" y="-526.25" width="30" height="48" as="geometry" />
        </mxCell>
        <mxCell id="6Hko_wkwTn4YoxljfCgy-37" value="" style="whiteSpace=wrap;html=1;aspect=fixed;movable=1;resizable=1;rotatable=1;deletable=1;editable=1;locked=0;connectable=1;" vertex="1" parent="6Hko_wkwTn4YoxljfCgy-49">
          <mxGeometry width="10" height="10" as="geometry" />
        </mxCell>
        <mxCell id="6Hko_wkwTn4YoxljfCgy-38" value="" style="whiteSpace=wrap;html=1;aspect=fixed;movable=1;resizable=1;rotatable=1;deletable=1;editable=1;locked=0;connectable=1;" vertex="1" parent="6Hko_wkwTn4YoxljfCgy-49">
          <mxGeometry x="10" width="10" height="10" as="geometry" />
        </mxCell>
        <mxCell id="6Hko_wkwTn4YoxljfCgy-39" value="" style="whiteSpace=wrap;html=1;aspect=fixed;movable=1;resizable=1;rotatable=1;deletable=1;editable=1;locked=0;connectable=1;" vertex="1" parent="6Hko_wkwTn4YoxljfCgy-49">
          <mxGeometry x="20" width="10" height="10" as="geometry" />
        </mxCell>
        <mxCell id="6Hko_wkwTn4YoxljfCgy-40" value="" style="whiteSpace=wrap;html=1;aspect=fixed;movable=1;resizable=1;rotatable=1;deletable=1;editable=1;locked=0;connectable=1;" vertex="1" parent="6Hko_wkwTn4YoxljfCgy-49">
          <mxGeometry x="5" y="12" width="10" height="10" as="geometry" />
        </mxCell>
        <mxCell id="6Hko_wkwTn4YoxljfCgy-41" value="" style="whiteSpace=wrap;html=1;aspect=fixed;movable=1;resizable=1;rotatable=1;deletable=1;editable=1;locked=0;connectable=1;" vertex="1" parent="6Hko_wkwTn4YoxljfCgy-49">
          <mxGeometry x="15" y="12" width="10" height="10" as="geometry" />
        </mxCell>
        <mxCell id="6Hko_wkwTn4YoxljfCgy-42" value="" style="whiteSpace=wrap;html=1;aspect=fixed;movable=1;resizable=1;rotatable=1;deletable=1;editable=1;locked=0;connectable=1;" vertex="1" parent="6Hko_wkwTn4YoxljfCgy-49">
          <mxGeometry x="25" y="12" width="10" height="10" as="geometry" />
        </mxCell>
        <mxCell id="6Hko_wkwTn4YoxljfCgy-43" value="" style="whiteSpace=wrap;html=1;aspect=fixed;movable=1;resizable=1;rotatable=1;deletable=1;editable=1;locked=0;connectable=1;" vertex="1" parent="1">
          <mxGeometry x="-790" y="-502.25" width="10" height="10" as="geometry" />
        </mxCell>
        <mxCell id="6Hko_wkwTn4YoxljfCgy-44" value="" style="whiteSpace=wrap;html=1;aspect=fixed;movable=1;resizable=1;rotatable=1;deletable=1;editable=1;locked=0;connectable=1;" vertex="1" parent="1">
          <mxGeometry x="-780" y="-502.25" width="10" height="10" as="geometry" />
        </mxCell>
        <mxCell id="6Hko_wkwTn4YoxljfCgy-45" value="" style="whiteSpace=wrap;html=1;aspect=fixed;movable=1;resizable=1;rotatable=1;deletable=1;editable=1;locked=0;connectable=1;" vertex="1" parent="1">
          <mxGeometry x="-770" y="-502.25" width="10" height="10" as="geometry" />
        </mxCell>
        <mxCell id="6Hko_wkwTn4YoxljfCgy-46" value="" style="whiteSpace=wrap;html=1;aspect=fixed;movable=1;resizable=1;rotatable=1;deletable=1;editable=1;locked=0;connectable=1;" vertex="1" parent="1">
          <mxGeometry x="-785" y="-490.25" width="10" height="10" as="geometry" />
        </mxCell>
        <mxCell id="6Hko_wkwTn4YoxljfCgy-47" value="" style="whiteSpace=wrap;html=1;aspect=fixed;movable=1;resizable=1;rotatable=1;deletable=1;editable=1;locked=0;connectable=1;" vertex="1" parent="1">
          <mxGeometry x="-775" y="-490.25" width="10" height="10" as="geometry" />
        </mxCell>
        <mxCell id="6Hko_wkwTn4YoxljfCgy-48" value="" style="whiteSpace=wrap;html=1;aspect=fixed;movable=1;resizable=1;rotatable=1;deletable=1;editable=1;locked=0;connectable=1;" vertex="1" parent="1">
          <mxGeometry x="-765" y="-490.25" width="10" height="10" as="geometry" />
        </mxCell>
        <mxCell id="6Hko_wkwTn4YoxljfCgy-50" value="&lt;font style=&quot;font-size: 12px;&quot;&gt;File&amp;nbsp;&lt;/font&gt;&lt;span style=&quot;background-color: initial;&quot;&gt;Blocks&lt;/span&gt;&lt;div&gt;&lt;span style=&quot;background-color: initial;&quot;&gt;or&lt;/span&gt;&lt;/div&gt;&lt;div&gt;&lt;span style=&quot;background-color: initial;&quot;&gt;Block&#39;s Hash&lt;/span&gt;&lt;/div&gt;" style="text;html=1;align=center;verticalAlign=middle;resizable=0;points=[];autosize=1;strokeColor=none;fillColor=none;strokeWidth=2;" vertex="1" parent="1">
          <mxGeometry x="-665" y="-539" width="90" height="60" as="geometry" />
        </mxCell>
        <mxCell id="6Hko_wkwTn4YoxljfCgy-51" value="&lt;font style=&quot;font-size: 12px;&quot;&gt;File&lt;/font&gt;&lt;div style=&quot;&quot;&gt;&lt;font style=&quot;font-size: 12px;&quot;&gt;Blocks&lt;/font&gt;&lt;/div&gt;" style="text;html=1;align=center;verticalAlign=middle;resizable=0;points=[];autosize=1;strokeColor=none;fillColor=none;strokeWidth=2;" vertex="1" parent="1">
          <mxGeometry x="-504.80999999999995" y="-470.5" width="60" height="40" as="geometry" />
        </mxCell>
        <mxCell id="6Hko_wkwTn4YoxljfCgy-52" style="edgeStyle=orthogonalEdgeStyle;rounded=0;orthogonalLoop=1;jettySize=auto;html=1;strokeWidth=3;endArrow=none;endFill=0;startArrow=classic;startFill=1;" edge="1" parent="1">
          <mxGeometry relative="1" as="geometry">
            <mxPoint x="-689" y="-470" as="sourcePoint" />
            <mxPoint x="-430.75" y="-468.9333333333333" as="targetPoint" />
            <Array as="points">
              <mxPoint x="-559" y="-469" />
              <mxPoint x="-431" y="-470" />
            </Array>
          </mxGeometry>
        </mxCell>
        <mxCell id="6Hko_wkwTn4YoxljfCgy-5" value="" style="outlineConnect=0;dashed=0;verticalLabelPosition=bottom;verticalAlign=top;align=center;html=1;shape=mxgraph.aws3.internet_2;fillColor=#dae8fc;strokeColor=#6c8ebf;" vertex="1" parent="1">
          <mxGeometry x="-589.5" y="-505" width="79.5" height="54" as="geometry" />
        </mxCell>
        <mxCell id="6Hko_wkwTn4YoxljfCgy-53" value="" style="endArrow=none;html=1;rounded=0;strokeWidth=3;entryX=0;entryY=0.5;entryDx=0;entryDy=0;entryPerimeter=0;startArrow=classic;startFill=1;endFill=0;" edge="1" parent="1">
          <mxGeometry width="50" height="50" relative="1" as="geometry">
            <mxPoint x="-389.62" y="-487" as="sourcePoint" />
            <mxPoint x="-273.62" y="-593" as="targetPoint" />
          </mxGeometry>
        </mxCell>
        <mxCell id="6Hko_wkwTn4YoxljfCgy-54" value="" style="endArrow=classic;html=1;rounded=0;strokeWidth=3;entryX=0;entryY=0.5;entryDx=0;entryDy=0;entryPerimeter=0;" edge="1" parent="1">
          <mxGeometry width="50" height="50" relative="1" as="geometry">
            <mxPoint x="-389" y="-459.9986194385399" as="sourcePoint" />
            <mxPoint x="-272.76" y="-380.655" as="targetPoint" />
          </mxGeometry>
        </mxCell>
        <mxCell id="6Hko_wkwTn4YoxljfCgy-56" value="" style="endArrow=none;html=1;rounded=0;strokeWidth=3;entryX=0;entryY=0.5;entryDx=0;entryDy=0;startArrow=classic;startFill=1;endFill=0;" edge="1" parent="1">
          <mxGeometry width="50" height="50" relative="1" as="geometry">
            <mxPoint x="-389" y="-470.5" as="sourcePoint" />
            <mxPoint x="-273" y="-471" as="targetPoint" />
          </mxGeometry>
        </mxCell>
        <mxCell id="6Hko_wkwTn4YoxljfCgy-57" value="" style="endArrow=none;html=1;rounded=0;strokeWidth=3;entryX=0;entryY=0.5;entryDx=0;entryDy=0;entryPerimeter=0;endFill=0;startArrow=classic;startFill=1;" edge="1" parent="1">
          <mxGeometry width="50" height="50" relative="1" as="geometry">
            <mxPoint x="-390" y="-448" as="sourcePoint" />
            <mxPoint x="-273" y="-369" as="targetPoint" />
          </mxGeometry>
        </mxCell>
        <mxCell id="6Hko_wkwTn4YoxljfCgy-58" value="Block Info" style="text;html=1;align=center;verticalAlign=middle;resizable=0;points=[];autosize=1;strokeColor=none;fillColor=none;strokeWidth=2;" vertex="1" parent="1">
          <mxGeometry x="-364" y="-505" width="80" height="30" as="geometry" />
        </mxCell>
        <mxCell id="6Hko_wkwTn4YoxljfCgy-59" value="Is block exist" style="text;html=1;align=center;verticalAlign=middle;resizable=0;points=[];autosize=1;strokeColor=none;fillColor=none;strokeWidth=2;" vertex="1" parent="1">
          <mxGeometry x="-364" y="-475" width="90" height="30" as="geometry" />
        </mxCell>
        <mxCell id="6Hko_wkwTn4YoxljfCgy-60" value="&lt;font style=&quot;font-size: 12px;&quot;&gt;File&amp;nbsp;&lt;/font&gt;&lt;span style=&quot;background-color: initial;&quot;&gt;Blocks&lt;/span&gt;" style="text;html=1;align=center;verticalAlign=middle;resizable=0;points=[];autosize=1;strokeColor=none;fillColor=none;strokeWidth=2;rotation=-43.8;" vertex="1" parent="1">
          <mxGeometry x="-374.80999999999995" y="-578.75" width="80" height="30" as="geometry" />
        </mxCell>
        <mxCell id="6Hko_wkwTn4YoxljfCgy-61" value="&lt;span style=&quot;background-color: initial;&quot;&gt;Block&#39;s Hash&lt;/span&gt;" style="text;html=1;align=center;verticalAlign=middle;resizable=0;points=[];autosize=1;strokeColor=none;fillColor=none;strokeWidth=2;rotation=33.9;" vertex="1" parent="1">
          <mxGeometry x="-377" y="-411" width="90" height="30" as="geometry" />
        </mxCell>
      </root>
    </mxGraphModel>
  </diagram>
</mxfile>
